<?xml version="1.0" standalone="no"?>
<!DOCTYPE svg PUBLIC "-//W3C//DTD SVG 20010904//EN"
 "http://www.w3.org/TR/2001/REC-SVG-20010904/DTD/svg10.dtd">
<svg version="1.0" xmlns="http://www.w3.org/2000/svg"
 width="1024.000000pt" height="1024.000000pt" viewBox="0 0 1024.000000 1024.000000"
 preserveAspectRatio="xMidYMid meet">
<metadata>
Created by potrace 1.14, written by Peter Selinger 2001-2017
</metadata>
<g transform="translate(0.000000,1024.000000) scale(0.100000,-0.100000)"
fill="#000000" stroke="none">
<path d="M1670 6038 c-173 -88 -511 -259 -750 -380 -239 -120 -438 -223 -442
-227 -5 -4 6 -34 23 -66 17 -33 43 -85 59 -115 15 -30 31 -73 34 -95 4 -22 12
-67 18 -100 5 -33 12 -69 13 -81 2 -11 8 -45 14 -75 6 -30 13 -70 16 -89 3
-19 8 -46 10 -60 13 -65 16 -78 21 -119 3 -25 7 -48 9 -52 3 -3 7 -26 10 -50
3 -24 8 -55 10 -69 3 -14 14 -74 25 -135 11 -60 22 -120 24 -132 3 -11 8 -43
12 -70 7 -50 20 -83 37 -94 5 -4 25 -3 46 1 20 5 55 11 79 14 40 5 149 25 257
46 28 6 64 12 80 14 17 2 68 11 115 20 47 8 101 18 120 21 19 3 49 8 65 12 17
3 37 7 45 8 48 7 110 17 140 25 19 4 57 11 83 15 27 3 59 8 70 11 45 9 83 16
102 19 32 4 257 44 285 50 14 3 45 8 70 11 91 11 111 37 89 119 -4 16 -10 46
-13 65 -2 19 -9 60 -15 90 -12 63 -21 116 -26 145 -1 11 -13 76 -25 145 -12
69 -24 134 -25 145 -2 11 -5 31 -8 45 -4 22 -8 43 -23 125 -2 11 -7 40 -10 65
-3 25 -8 48 -10 52 -3 4 -7 24 -10 45 -3 21 -6 49 -8 63 -8 59 -19 90 -32 90
-7 0 -35 -4 -61 -10 -26 -5 -61 -11 -78 -14 -16 -2 -73 -12 -125 -21 -52 -9
-104 -18 -115 -20 -11 -2 -33 -6 -50 -9 -16 -3 -70 -13 -120 -21 -113 -20
-117 -21 -190 -34 -33 -6 -73 -13 -90 -16 -16 -2 -40 -7 -51 -9 -12 -2 -39 -7
-60 -10 -22 -4 -63 -11 -92 -17 -29 -6 -67 -12 -85 -14 -18 -2 -32 -4 -32 -5
0 -1 -11 -3 -25 -6 -14 -2 -77 -14 -140 -25 -63 -11 -127 -22 -142 -24 -15 -2
-51 -8 -80 -14 -80 -16 -108 -20 -108 -16 0 4 -19 -6 775 395 308 155 564 286
570 291 5 5 17 9 26 9 10 0 19 3 21 8 2 4 26 18 53 31 28 14 51 26 53 27 4 2
-108 223 -116 227 -4 2 -149 -68 -322 -155z m197 -49 c-3 -33 -6 -61 -8 -63
-15 -12 -128 -64 -131 -60 -3 2 -1 25 3 52 4 26 8 52 8 59 1 11 101 69 125 72
4 0 6 -26 3 -60z m-341 -171 c-3 -34 -7 -62 -9 -63 -9 -9 -130 -66 -132 -63
-8 8 16 113 28 126 11 10 98 57 115 61 2 1 1 -27 -2 -61z m-340 -155 c-2 -27
-4 -55 -5 -64 -1 -13 -107 -79 -128 -79 -8 0 8 115 18 125 7 7 101 59 116 64
2 1 1 -20 -1 -46z m-331 -155 c-6 -28 -13 -69 -14 -85 -1 -11 -109 -73 -126
-73 -8 0 2 110 10 119 14 14 101 59 118 60 13 1 16 -4 12 -21z m1255 -124 c0
-5 -40 -104 -45 -112 -3 -4 -43 -11 -102 -18 l-52 -7 20 44 c11 24 23 51 28
59 7 12 45 23 144 39 4 0 7 -2 7 -5z m-386 -86 c-26 -82 -35 -93 -84 -102 -14
-2 -42 -7 -62 -11 -40 -8 -43 -5 -29 23 5 9 16 34 24 54 15 33 21 37 64 43 26
4 53 8 58 10 27 9 36 4 29 -17z m-386 -95 c-12 -32 -22 -59 -23 -60 -2 -5
-140 -31 -143 -28 -3 3 13 43 41 102 5 12 13 21 16 19 4 -3 112 17 128 23 1 1
-7 -25 -19 -56z m-352 -22 c-5 -7 -26 -56 -31 -71 -11 -32 -22 -39 -80 -50
-35 -7 -68 -10 -73 -9 -5 2 2 29 17 59 25 53 28 55 81 66 70 15 93 16 86 5z
m525 -351 c63 -23 119 -42 124 -44 13 -4 44 -15 70 -26 11 -4 35 -13 53 -20
46 -18 43 -34 -14 -80 -11 -8 -71 -58 -134 -110 -149 -124 -144 -120 -158
-111 -10 6 -43 141 -44 181 0 8 -6 44 -13 80 -28 137 -29 170 -5 170 4 0 59
-18 121 -40z"/>
<path d="M2809 5797 c-136 -33 -208 -116 -224 -257 -2 -19 -4 -37 -5 -40 -1
-3 -1 -178 -1 -390 0 -441 1 -462 40 -538 31 -60 100 -119 151 -129 8 -1 35
-6 60 -11 68 -12 157 -5 198 17 11 6 22 7 26 4 3 -3 6 -1 6 5 0 7 6 12 13 12
12 0 56 42 84 80 19 25 54 122 42 114 -8 -4 -8 -1 -1 12 5 11 9 75 8 144 l-1
125 -97 3 c-88 2 -98 1 -99 -15 0 -10 -2 -67 -3 -128 -2 -65 -8 -121 -16 -137
-13 -27 -54 -48 -92 -48 -34 0 -88 31 -88 51 0 10 -4 20 -9 23 -13 8 -11 812
2 850 19 56 86 81 146 55 45 -20 58 -60 57 -168 -1 -111 -4 -108 116 -101 l83
5 -1 115 c-1 63 -4 126 -7 139 -22 86 -95 170 -166 191 -20 7 -43 14 -51 17
-24 10 -134 9 -171 0z"/>
<path d="M6345 5793 c-63 -20 -123 -55 -136 -80 -7 -13 -16 -23 -20 -23 -12 0
-48 -106 -55 -162 -8 -63 -11 -788 -4 -788 3 0 5 -15 5 -32 -2 -59 30 -140 77
-194 32 -37 92 -69 149 -80 50 -9 160 -10 166 -1 2 4 13 5 24 2 10 -4 19 -2
19 3 0 6 12 13 26 16 14 4 32 12 40 19 37 31 84 77 78 77 -4 0 -2 6 4 13 16
19 51 118 40 111 -7 -4 -7 0 0 12 5 11 9 61 8 111 -1 56 3 93 9 93 7 0 7 3 0
8 -6 4 -10 70 -10 162 l0 155 -147 2 c-92 1 -150 -2 -154 -8 -3 -6 -6 -41 -5
-77 1 -37 2 -77 2 -89 -1 -19 4 -22 37 -20 70 5 70 6 68 -170 -2 -131 -5 -162
-20 -184 -36 -56 -121 -63 -172 -15 l-28 25 -1 417 c0 228 3 418 7 420 4 3 5
11 2 18 -3 7 5 26 18 41 31 36 102 46 143 19 37 -24 48 -55 51 -148 2 -43 5
-81 8 -83 7 -8 174 -5 186 2 17 10 5 192 -16 255 -25 75 -106 158 -146 151 -5
0 -8 4 -8 11 0 6 -3 9 -6 5 -3 -3 -18 -1 -33 5 -37 15 -159 16 -206 1z"/>
<path d="M3594 5790 l-30 -5 0 -263 c1 -145 -2 -266 -7 -269 -4 -2 -4 -10 0
-16 11 -17 11 -59 1 -79 -4 -9 -4 -19 0 -22 10 -6 9 -106 -1 -123 -4 -6 -3
-14 2 -17 10 -6 8 -66 -3 -84 -3 -6 -3 -13 1 -15 5 -3 8 -103 7 -224 0 -120 1
-222 3 -228 3 -8 102 -11 194 -6 14 1 16 66 16 676 l0 675 -23 1 c-82 4 -133
3 -160 -1z"/>
<path d="M4171 5790 c-4 -3 -7 -40 -6 -82 0 -48 -3 -78 -10 -78 -7 0 -7 -3 0
-8 6 -4 11 -38 11 -77 0 -38 -5 -73 -11 -77 -6 -5 -5 -8 3 -8 9 0 10 -5 3 -19
-6 -10 -7 -21 -4 -25 10 -9 10 -156 0 -156 -4 0 -5 -5 -1 -12 10 -16 11 -148
1 -148 -5 0 -5 -6 -1 -12 11 -17 11 -138 1 -138 -5 0 -5 -6 -1 -12 12 -20 11
-268 -1 -268 -7 0 -7 -3 0 -8 14 -9 14 -152 0 -152 -6 0 -7 -3 0 -8 6 -4 10
-20 10 -37 l0 -29 88 1 c49 1 91 3 93 6 3 3 6 217 6 476 0 424 5 519 21 434
11 -60 18 -87 28 -105 5 -10 8 -18 5 -18 -3 0 2 -23 10 -52 9 -28 17 -59 19
-67 2 -9 8 -36 15 -61 7 -25 14 -53 16 -62 2 -10 6 -26 9 -35 5 -19 34 -128
40 -153 2 -8 4 -15 5 -15 1 0 3 -7 5 -15 14 -65 79 -308 86 -321 8 -15 42 -19
55 -7 3 4 16 3 28 -1 21 -7 125 -5 134 3 2 3 5 306 5 675 l2 671 -22 1 c-30 1
-150 1 -162 0 -4 -1 -8 -53 -7 -116 1 -63 -3 -115 -7 -115 -5 0 -5 -5 -1 -12
10 -16 11 -479 1 -485 -4 -2 -4 -10 0 -16 10 -16 11 -47 2 -47 -5 0 -12 17
-18 38 -5 20 -12 51 -17 67 -12 51 -14 59 -17 80 -1 11 -5 22 -9 25 -4 4 -9
23 -10 43 -2 20 -5 37 -8 37 -3 0 -12 28 -20 63 -16 72 -17 76 -24 102 -64
248 -85 328 -90 332 -7 8 -245 10 -255 3z"/>
<path d="M5226 5784 c-8 -7 -10 -206 -9 -650 1 -351 2 -652 2 -669 l1 -30 282
0 c178 0 285 4 289 10 4 6 6 42 5 80 -1 39 2 78 7 89 6 13 6 16 -2 12 -6 -4
-11 -4 -11 1 0 4 -80 8 -178 8 l-177 0 -3 208 -3 207 142 -1 c77 0 144 2 147
5 10 10 7 186 -3 187 -5 1 -71 2 -145 3 l-135 1 -1 178 -2 178 39 -4 c21 -2
43 1 49 7 5 5 10 6 10 1 0 -12 253 -13 261 -2 4 5 6 40 5 78 -1 39 3 71 9 73
5 3 5 5 -2 5 -7 1 -10 8 -7 16 7 18 36 16 -290 18 -181 1 -273 -2 -280 -9z"/>
<path d="M7144 5792 l-21 -3 2 -562 c1 -352 6 -573 12 -593 53 -158 181 -227
373 -202 58 8 97 23 138 54 34 26 85 99 85 121 0 7 4 13 9 13 4 0 7 3 6 8 -1
4 2 39 7 77 10 83 11 133 2 141 -3 3 -2 17 4 31 6 17 6 22 -3 17 -7 -5 -8 -3
-4 5 10 16 13 131 4 131 -4 0 -3 11 2 25 6 15 6 26 -1 30 -5 4 -7 11 -4 16 9
14 11 89 3 89 -4 0 -3 11 2 25 5 13 6 26 2 29 -7 4 -8 50 -2 66 5 13 2 111 -3
116 -3 3 -2 17 3 30 6 14 6 26 0 29 -6 3 -5 16 0 31 7 18 7 23 -2 18 -7 -5 -8
-3 -4 5 10 16 13 131 4 131 -4 0 -3 11 2 25 5 13 6 27 1 29 -4 3 -6 19 -3 36
3 24 1 30 -14 31 -23 1 -177 1 -184 0 -3 -1 -6 -238 -5 -528 0 -291 -3 -545
-8 -565 -13 -53 -38 -71 -100 -72 -62 -1 -92 21 -103 74 -10 54 -11 843 -1
858 5 6 6 12 1 12 -11 0 -11 90 -1 108 5 6 4 12 -1 12 -4 0 -7 16 -5 36 4 61
-5 68 -93 68 -44 1 -88 0 -100 -2z"/>
<path d="M8138 5758 c-2 -21 0 -38 5 -38 4 0 5 -6 1 -12 -11 -17 -11 -108 -1
-108 5 0 5 -6 1 -12 -11 -17 -11 -188 -1 -188 5 0 5 -6 1 -12 -11 -17 -11
-108 -1 -108 5 0 5 -6 1 -12 -11 -17 -11 -188 -1 -188 5 0 5 -6 1 -12 -11 -17
-11 -108 -1 -108 5 0 5 -6 1 -12 -11 -17 -11 -188 -1 -188 5 0 5 -6 1 -12 -11
-17 -11 -108 -1 -108 5 0 5 -6 0 -12 -6 -10 -8 -91 -4 -174 1 -16 47 -24 60
-11 6 6 11 7 11 2 0 -6 30 -10 67 -10 58 1 67 3 70 20 2 11 4 140 4 287 0 193
4 270 12 275 18 11 78 9 117 -3 61 -20 75 -58 76 -210 0 -72 4 -136 8 -142 4
-7 3 -12 -1 -12 -14 0 -4 -162 12 -209 4 -11 8 -11 20 -1 8 7 15 9 15 4 0 -10
163 -9 180 1 8 5 7 11 -2 22 -9 12 -13 70 -15 212 -3 248 -6 287 -26 335 -10
21 -17 42 -17 47 0 5 -4 9 -10 9 -5 0 -10 7 -10 16 0 8 -4 12 -10 9 -5 -3 -10
-2 -10 4 0 5 -9 13 -20 16 -19 6 -29 35 -11 35 10 0 76 66 77 77 0 4 6 22 13
38 20 47 29 196 17 289 -11 88 -61 168 -121 199 -64 32 -121 40 -312 41 l-191
1 -4 -37z m388 -193 c28 -36 31 -51 28 -161 -2 -107 -6 -127 -34 -156 -17 -19
-34 -23 -95 -26 l-74 -4 1 183 c0 101 2 187 4 191 3 4 37 6 76 4 65 -3 74 -6
94 -31z"/>
<path d="M9146 5784 c-13 -12 -14 -1042 -2 -1112 5 -24 14 -56 22 -70 8 -15
14 -33 14 -40 0 -7 7 -15 15 -18 8 -4 15 -12 15 -18 0 -23 99 -81 158 -93 81
-16 197 -2 260 31 66 34 122 116 139 201 2 11 5 267 6 568 2 480 0 550 -13
556 -17 8 -179 5 -187 -3 -3 -3 -6 -244 -6 -537 0 -335 -3 -544 -10 -565 -25
-82 -166 -82 -195 0 -7 21 -11 209 -11 564 0 294 -2 536 -5 539 -11 11 -189 8
-200 -3z"/>
</g>
</svg>
